[img]http://leetleech.org/images/55445462085055025725.jpg[/img]

[b]Burning Bright (2010) DVDRip XviD-SKITTLES[/b]

[img]http://leetleech.org/images/39185456263711143641.png[/img]

Video
ID                               : 0
Format                           : MPEG-4 Visual
Format profile                   : Advanced Simple@L5
Format settings, BVOP            : Yes
Format settings, QPel            : No
Format settings, GMC             : No warppoints
Format settings, Matrix          : Default (H.263)
Muxing mode                      : Packed bitstream
Codec ID                         : XVID
Codec ID/Hint                    : XviD
Duration                         : 1h 25mn
Bit rate                         : 1 011 Kbps
Width                            : 640 pixels
Height                           : 352 pixels
Display aspect ratio             : 16:9
Frame rate                       : 23.976 fps
Color space                      : YUV
Chroma subsampling               : 4:2:0
Bit depth                        : 8 bits
Scan type                        : Progressive
Bits/(Pixel*Frame)               : 0.187
Stream size                      : 620 MiB (88%)
Writing library                  : XviD 1.2.1 (UTC 2008-12-04)

Audio
ID                               : 1
Format                           : MPEG Audio
Format version                   : Version 1
Format profile                   : Layer 3
Mode                             : Joint stereo
Mode extension                   : MS Stereo
Codec ID                         : 55
Codec ID/Hint                    : MP3
Duration                         : 1h 25mn
Bit rate mode                    : Constant
Bit rate                         : 128 Kbps
Channel(s)                       : 2 channels
Sampling rate                    : 48.0 KHz
Stream size                      : 78.4 MiB (11%)
Alignment                        : Aligned on interleaves
Interleave, duration             : 42 ms (1.00 video frame)
Interleave, preload duration     : 504 ms
 
http://www.imdb.com/title/tt1244658/

[img]http://leetleech.org/images/46941880339015444838.png[/img]

Briana Evigan		
Garret Dillahunt... 	Johnny Gavineau
Charlie Tahan		
Meat Loaf	... 	Howie
Preston Bailey		
Mary Rachel Dudley... 	Catherine
Peggy Sheffield	... 	Dr. Orsi

[img]http://leetleech.org/images/70187465700988366433.png[/img]

Genre:
Drama | Horror | Thriller

Plot:
A thriller centered on a young woman and her autistic little 
brother who are trapped in a house with a ravenous tiger during 
a hurricane.

[img]http://leetleech.org/images/64476088802225496360.png[/img]

[img]http://leetleech.org/images/57097903820410210214.png[/img]
[img]http://leetleech.org/images/52976033333836158496.png[/img]
[img]http://leetleech.org/images/23301804463746433982.png[/img]
[img]http://leetleech.org/images/54683716739274738596.png[/img]
[img]http://leetleech.org/images/60865635584511555517.png[/img]
[img]http://leetleech.org/images/53578235879615054710.png[/img]